<svg xmlns="http://www.w3.org/2000/svg" viewBox="0 0 357.52 148.43"><defs><style>.cls-1{fill:#45bea7;}.cls-2{fill:#214099;}</style></defs><title>자산 5</title><g id="레이어_2" data-name="레이어 2"><g id="레이어_1-2" data-name="레이어 1"><path class="cls-1" d="M275.36,40.84h0a14.49,14.49,0,0,0-19.75,5.29L244,66.18,232.45,46.13a14.48,14.48,0,0,0-19.74-5.29h0a14.5,14.5,0,0,0-5.3,19.75L231.5,102.3a14.18,14.18,0,0,0,4,4.44,3.62,3.62,0,0,0,.32.22c.27.18.54.37.82.53a.91.91,0,0,1,.16.11h0l.47.23.57.3.87.37.37.14c.34.13.68.23,1,.33l.29.08c.35.09.7.16,1,.23l.36.06c.31,0,.62.08.94.11l.53,0,.75,0,.75,0,.53,0c.32,0,.63-.06.95-.11l.36-.06c.34-.07.69-.14,1-.23L248,109c.34-.1.68-.2,1-.33l.37-.14.87-.37.58-.3.46-.23h0a.91.91,0,0,1,.16-.11c.28-.16.55-.35.82-.53a3.62,3.62,0,0,0,.32-.22,14.18,14.18,0,0,0,4-4.44l24.09-41.71A14.51,14.51,0,0,0,275.36,40.84Z"/><path class="cls-2" d="M63.09,67l-12-20.85a14.45,14.45,0,0,0-25,0L2,87.84a14.45,14.45,0,0,0,12.51,21.67h97.25a14.45,14.45,0,0,0,12.51-21.67l-24.08-41.7a14.45,14.45,0,0,0-25,0L63.09,67"/><path class="cls-2" d="M66.1,72.21l-3-5.22-3,5.22a3.54,3.54,0,1,0,6,0Z"/><path class="cls-1" d="M247,72.21,244,67l-3,5.22a3.54,3.54,0,1,0,6,0Z"/><circle class="cls-1" cx="165.84" cy="74.22" r="35.3"/><circle class="cls-1" cx="322.23" cy="74.22" r="35.3"/><circle class="cls-1" cx="244.03" cy="133.97" r="14.46"/><circle class="cls-2" cx="38.67" cy="14.46" r="14.46"/><circle class="cls-2" cx="86.99" cy="14.46" r="14.46"/></g></g></svg>